<mxfile host="app.diagrams.net" agent="Mozilla/5.0 (Windows NT 10.0; Win64; x64) AppleWebKit/537.36 (KHTML, like Gecko) Chrome/131.0.0.0 Safari/537.36 Edg/131.0.0.0" version="24.8.4">
  <diagram id="R2lEEEUBdFMjLlhIrx00" name="Page-1">
    <mxGraphModel dx="1274" dy="639" grid="1" gridSize="10" guides="1" tooltips="1" connect="1" arrows="1" fold="1" page="1" pageScale="1" pageWidth="850" pageHeight="1100" math="0" shadow="0" extFonts="Permanent Marker^https://fonts.googleapis.com/css?family=Permanent+Marker">
      <root>
        <mxCell id="0" />
        <mxCell id="1" parent="0" />
        <mxCell id="kzdnZfLJJSmCH7Yf09WK-1" value="Delivery Info" style="rounded=0;whiteSpace=wrap;html=1;fillColor=#A9C4EB;" vertex="1" parent="1">
          <mxGeometry x="10" y="150" width="120" height="60" as="geometry" />
        </mxCell>
        <mxCell id="kzdnZfLJJSmCH7Yf09WK-3" value="instructions" style="ellipse;whiteSpace=wrap;html=1;" vertex="1" parent="1">
          <mxGeometry x="-180" y="220" width="120" height="80" as="geometry" />
        </mxCell>
        <mxCell id="kzdnZfLJJSmCH7Yf09WK-4" value="name" style="ellipse;whiteSpace=wrap;html=1;" vertex="1" parent="1">
          <mxGeometry x="-100" y="50" width="120" height="80" as="geometry" />
        </mxCell>
        <mxCell id="kzdnZfLJJSmCH7Yf09WK-5" value="province" style="ellipse;whiteSpace=wrap;html=1;" vertex="1" parent="1">
          <mxGeometry x="20" width="120" height="80" as="geometry" />
        </mxCell>
        <mxCell id="kzdnZfLJJSmCH7Yf09WK-6" value="&lt;b style=&quot;&quot;&gt;id&lt;/b&gt;" style="ellipse;whiteSpace=wrap;html=1;fontStyle=4" vertex="1" parent="1">
          <mxGeometry x="180" y="40" width="120" height="80" as="geometry" />
        </mxCell>
        <mxCell id="kzdnZfLJJSmCH7Yf09WK-8" value="address" style="ellipse;whiteSpace=wrap;html=1;" vertex="1" parent="1">
          <mxGeometry x="-190" y="130" width="120" height="80" as="geometry" />
        </mxCell>
        <mxCell id="kzdnZfLJJSmCH7Yf09WK-9" value="" style="endArrow=none;html=1;rounded=0;exitX=1;exitY=0.5;exitDx=0;exitDy=0;" edge="1" parent="1" source="kzdnZfLJJSmCH7Yf09WK-1" target="kzdnZfLJJSmCH7Yf09WK-6">
          <mxGeometry width="50" height="50" relative="1" as="geometry">
            <mxPoint x="150" y="250" as="sourcePoint" />
            <mxPoint x="110" y="220" as="targetPoint" />
          </mxGeometry>
        </mxCell>
        <mxCell id="kzdnZfLJJSmCH7Yf09WK-10" value="" style="endArrow=none;html=1;rounded=0;exitX=0.317;exitY=0;exitDx=0;exitDy=0;exitPerimeter=0;entryX=0.5;entryY=1;entryDx=0;entryDy=0;" edge="1" parent="1" source="kzdnZfLJJSmCH7Yf09WK-1" target="kzdnZfLJJSmCH7Yf09WK-4">
          <mxGeometry width="50" height="50" relative="1" as="geometry">
            <mxPoint x="80" y="230" as="sourcePoint" />
            <mxPoint x="-10" y="200" as="targetPoint" />
          </mxGeometry>
        </mxCell>
        <mxCell id="kzdnZfLJJSmCH7Yf09WK-11" value="" style="endArrow=none;html=1;rounded=0;entryX=0;entryY=0.25;entryDx=0;entryDy=0;exitX=1;exitY=0.5;exitDx=0;exitDy=0;" edge="1" parent="1" source="kzdnZfLJJSmCH7Yf09WK-8" target="kzdnZfLJJSmCH7Yf09WK-1">
          <mxGeometry width="50" height="50" relative="1" as="geometry">
            <mxPoint x="-50" y="220" as="sourcePoint" />
            <mxPoint y="170" as="targetPoint" />
          </mxGeometry>
        </mxCell>
        <mxCell id="kzdnZfLJJSmCH7Yf09WK-12" value="" style="endArrow=none;html=1;rounded=0;entryX=0.625;entryY=0.067;entryDx=0;entryDy=0;exitX=0.5;exitY=1;exitDx=0;exitDy=0;entryPerimeter=0;" edge="1" parent="1" source="kzdnZfLJJSmCH7Yf09WK-5" target="kzdnZfLJJSmCH7Yf09WK-1">
          <mxGeometry width="50" height="50" relative="1" as="geometry">
            <mxPoint x="-110" y="290" as="sourcePoint" />
            <mxPoint x="-60" y="240" as="targetPoint" />
          </mxGeometry>
        </mxCell>
        <mxCell id="kzdnZfLJJSmCH7Yf09WK-13" value="" style="endArrow=none;html=1;rounded=0;entryX=0.333;entryY=1;entryDx=0;entryDy=0;entryPerimeter=0;exitX=0.983;exitY=0.3;exitDx=0;exitDy=0;exitPerimeter=0;" edge="1" parent="1" source="kzdnZfLJJSmCH7Yf09WK-3" target="kzdnZfLJJSmCH7Yf09WK-1">
          <mxGeometry width="50" height="50" relative="1" as="geometry">
            <mxPoint x="-30" y="380" as="sourcePoint" />
            <mxPoint x="20" y="330" as="targetPoint" />
          </mxGeometry>
        </mxCell>
        <mxCell id="kzdnZfLJJSmCH7Yf09WK-14" value="Order" style="rounded=0;whiteSpace=wrap;html=1;fillColor=#A9C4EB;" vertex="1" parent="1">
          <mxGeometry x="10" y="450" width="120" height="60" as="geometry" />
        </mxCell>
        <mxCell id="kzdnZfLJJSmCH7Yf09WK-15" value="&lt;u&gt;&lt;b&gt;id&lt;/b&gt;&lt;/u&gt;" style="ellipse;whiteSpace=wrap;html=1;" vertex="1" parent="1">
          <mxGeometry x="-170" y="350" width="120" height="80" as="geometry" />
        </mxCell>
        <mxCell id="kzdnZfLJJSmCH7Yf09WK-16" value="shipping fees" style="ellipse;whiteSpace=wrap;html=1;" vertex="1" parent="1">
          <mxGeometry x="-200" y="480" width="120" height="80" as="geometry" />
        </mxCell>
        <mxCell id="kzdnZfLJJSmCH7Yf09WK-19" value="" style="endArrow=none;html=1;rounded=0;exitX=1.008;exitY=0.663;exitDx=0;exitDy=0;exitPerimeter=0;entryX=0;entryY=0.5;entryDx=0;entryDy=0;" edge="1" parent="1" source="kzdnZfLJJSmCH7Yf09WK-16" target="kzdnZfLJJSmCH7Yf09WK-14">
          <mxGeometry width="50" height="50" relative="1" as="geometry">
            <mxPoint x="-30" y="540" as="sourcePoint" />
            <mxPoint x="20" y="490" as="targetPoint" />
          </mxGeometry>
        </mxCell>
        <mxCell id="kzdnZfLJJSmCH7Yf09WK-20" value="" style="endArrow=none;html=1;rounded=0;entryX=0.425;entryY=1.025;entryDx=0;entryDy=0;entryPerimeter=0;exitX=0.5;exitY=0;exitDx=0;exitDy=0;" edge="1" parent="1" source="kzdnZfLJJSmCH7Yf09WK-14" target="kzdnZfLJJSmCH7Yf09WK-15">
          <mxGeometry width="50" height="50" relative="1" as="geometry">
            <mxPoint x="60" y="470" as="sourcePoint" />
            <mxPoint x="110" y="420" as="targetPoint" />
          </mxGeometry>
        </mxCell>
        <mxCell id="kzdnZfLJJSmCH7Yf09WK-21" value="Has" style="rhombus;whiteSpace=wrap;html=1;fillColor=#FF8000;" vertex="1" parent="1">
          <mxGeometry x="30" y="320" width="80" height="80" as="geometry" />
        </mxCell>
        <mxCell id="kzdnZfLJJSmCH7Yf09WK-22" value="" style="endArrow=none;html=1;rounded=0;exitX=0.308;exitY=-0.017;exitDx=0;exitDy=0;exitPerimeter=0;" edge="1" parent="1" source="kzdnZfLJJSmCH7Yf09WK-14">
          <mxGeometry width="50" height="50" relative="1" as="geometry">
            <mxPoint x="20" y="450" as="sourcePoint" />
            <mxPoint x="70" y="400" as="targetPoint" />
          </mxGeometry>
        </mxCell>
        <mxCell id="kzdnZfLJJSmCH7Yf09WK-25" value="1" style="edgeLabel;html=1;align=center;verticalAlign=middle;resizable=0;points=[];" vertex="1" connectable="0" parent="kzdnZfLJJSmCH7Yf09WK-22">
          <mxGeometry x="0.0265" y="2" relative="1" as="geometry">
            <mxPoint as="offset" />
          </mxGeometry>
        </mxCell>
        <mxCell id="kzdnZfLJJSmCH7Yf09WK-23" value="" style="endArrow=none;html=1;rounded=0;entryX=0.617;entryY=1.05;entryDx=0;entryDy=0;entryPerimeter=0;exitX=1;exitY=0;exitDx=0;exitDy=0;" edge="1" parent="1" source="kzdnZfLJJSmCH7Yf09WK-21" target="kzdnZfLJJSmCH7Yf09WK-1">
          <mxGeometry width="50" height="50" relative="1" as="geometry">
            <mxPoint x="70" y="340" as="sourcePoint" />
            <mxPoint x="120" y="290" as="targetPoint" />
          </mxGeometry>
        </mxCell>
        <mxCell id="kzdnZfLJJSmCH7Yf09WK-24" value="1" style="edgeLabel;html=1;align=center;verticalAlign=middle;resizable=0;points=[];" vertex="1" connectable="0" parent="kzdnZfLJJSmCH7Yf09WK-23">
          <mxGeometry x="-0.02" y="1" relative="1" as="geometry">
            <mxPoint as="offset" />
          </mxGeometry>
        </mxCell>
        <mxCell id="kzdnZfLJJSmCH7Yf09WK-26" value="Invoice" style="rounded=0;whiteSpace=wrap;html=1;fillColor=#A9C4EB;" vertex="1" parent="1">
          <mxGeometry x="30" y="640" width="120" height="60" as="geometry" />
        </mxCell>
        <mxCell id="kzdnZfLJJSmCH7Yf09WK-27" value="&lt;u&gt;&lt;b&gt;id&lt;/b&gt;&lt;/u&gt;" style="ellipse;whiteSpace=wrap;html=1;" vertex="1" parent="1">
          <mxGeometry x="-190" y="710" width="120" height="80" as="geometry" />
        </mxCell>
        <mxCell id="kzdnZfLJJSmCH7Yf09WK-28" value="tolalAmount" style="ellipse;whiteSpace=wrap;html=1;" vertex="1" parent="1">
          <mxGeometry x="-50" y="780" width="120" height="80" as="geometry" />
        </mxCell>
        <mxCell id="kzdnZfLJJSmCH7Yf09WK-29" value="" style="endArrow=none;html=1;rounded=0;entryX=0;entryY=0.5;entryDx=0;entryDy=0;exitX=0.958;exitY=0.325;exitDx=0;exitDy=0;exitPerimeter=0;" edge="1" parent="1" source="kzdnZfLJJSmCH7Yf09WK-27" target="kzdnZfLJJSmCH7Yf09WK-26">
          <mxGeometry width="50" height="50" relative="1" as="geometry">
            <mxPoint x="-30" y="690" as="sourcePoint" />
            <mxPoint x="40" y="630" as="targetPoint" />
          </mxGeometry>
        </mxCell>
        <mxCell id="kzdnZfLJJSmCH7Yf09WK-30" value="" style="endArrow=none;html=1;rounded=0;entryX=0.417;entryY=1;entryDx=0;entryDy=0;entryPerimeter=0;exitX=1;exitY=0;exitDx=0;exitDy=0;" edge="1" parent="1" source="kzdnZfLJJSmCH7Yf09WK-28" target="kzdnZfLJJSmCH7Yf09WK-26">
          <mxGeometry width="50" height="50" relative="1" as="geometry">
            <mxPoint x="40" y="770" as="sourcePoint" />
            <mxPoint x="90" y="720" as="targetPoint" />
          </mxGeometry>
        </mxCell>
        <mxCell id="kzdnZfLJJSmCH7Yf09WK-31" value="Has" style="rhombus;whiteSpace=wrap;html=1;fillColor=#FF8000;" vertex="1" parent="1">
          <mxGeometry x="130" y="530" width="80" height="80" as="geometry" />
        </mxCell>
        <mxCell id="kzdnZfLJJSmCH7Yf09WK-32" value="" style="endArrow=none;html=1;rounded=0;entryX=0.5;entryY=1;entryDx=0;entryDy=0;exitX=1;exitY=0.25;exitDx=0;exitDy=0;" edge="1" parent="1" source="kzdnZfLJJSmCH7Yf09WK-26" target="kzdnZfLJJSmCH7Yf09WK-31">
          <mxGeometry width="50" height="50" relative="1" as="geometry">
            <mxPoint x="170" y="670" as="sourcePoint" />
            <mxPoint x="240.71067811865476" y="620" as="targetPoint" />
          </mxGeometry>
        </mxCell>
        <mxCell id="kzdnZfLJJSmCH7Yf09WK-35" value="1" style="edgeLabel;html=1;align=center;verticalAlign=middle;resizable=0;points=[];" vertex="1" connectable="0" parent="kzdnZfLJJSmCH7Yf09WK-32">
          <mxGeometry x="0.0382" y="-2" relative="1" as="geometry">
            <mxPoint x="1" as="offset" />
          </mxGeometry>
        </mxCell>
        <mxCell id="kzdnZfLJJSmCH7Yf09WK-33" value="" style="endArrow=none;html=1;rounded=0;exitX=0.5;exitY=0;exitDx=0;exitDy=0;entryX=1;entryY=0.25;entryDx=0;entryDy=0;" edge="1" parent="1" source="kzdnZfLJJSmCH7Yf09WK-31" target="kzdnZfLJJSmCH7Yf09WK-14">
          <mxGeometry width="50" height="50" relative="1" as="geometry">
            <mxPoint x="190" y="500" as="sourcePoint" />
            <mxPoint x="240" y="450" as="targetPoint" />
          </mxGeometry>
        </mxCell>
        <mxCell id="kzdnZfLJJSmCH7Yf09WK-34" value="1" style="edgeLabel;html=1;align=center;verticalAlign=middle;resizable=0;points=[];" vertex="1" connectable="0" parent="kzdnZfLJJSmCH7Yf09WK-33">
          <mxGeometry x="-0.0046" relative="1" as="geometry">
            <mxPoint x="-1" as="offset" />
          </mxGeometry>
        </mxCell>
        <mxCell id="kzdnZfLJJSmCH7Yf09WK-36" value="PaymentTransaction" style="rounded=0;whiteSpace=wrap;html=1;fillColor=#A9C4EB;" vertex="1" parent="1">
          <mxGeometry x="60" y="900" width="120" height="60" as="geometry" />
        </mxCell>
        <mxCell id="kzdnZfLJJSmCH7Yf09WK-37" value="id" style="ellipse;whiteSpace=wrap;html=1;" vertex="1" parent="1">
          <mxGeometry x="-170" y="990" width="120" height="80" as="geometry" />
        </mxCell>
        <mxCell id="kzdnZfLJJSmCH7Yf09WK-38" value="method" style="ellipse;whiteSpace=wrap;html=1;" vertex="1" parent="1">
          <mxGeometry x="-170" y="880" width="120" height="80" as="geometry" />
        </mxCell>
        <mxCell id="kzdnZfLJJSmCH7Yf09WK-39" value="creatAT" style="ellipse;whiteSpace=wrap;html=1;" vertex="1" parent="1">
          <mxGeometry x="-10" y="1030" width="120" height="80" as="geometry" />
        </mxCell>
        <mxCell id="kzdnZfLJJSmCH7Yf09WK-40" value="content" style="ellipse;whiteSpace=wrap;html=1;" vertex="1" parent="1">
          <mxGeometry x="140" y="1040" width="120" height="80" as="geometry" />
        </mxCell>
        <mxCell id="kzdnZfLJJSmCH7Yf09WK-43" value="" style="endArrow=none;html=1;rounded=0;entryX=1;entryY=0.5;entryDx=0;entryDy=0;exitX=0;exitY=0.75;exitDx=0;exitDy=0;" edge="1" parent="1" source="kzdnZfLJJSmCH7Yf09WK-36" target="kzdnZfLJJSmCH7Yf09WK-37">
          <mxGeometry width="50" height="50" relative="1" as="geometry">
            <mxPoint x="300" y="780" as="sourcePoint" />
            <mxPoint x="310" y="640" as="targetPoint" />
          </mxGeometry>
        </mxCell>
        <mxCell id="kzdnZfLJJSmCH7Yf09WK-45" value="" style="endArrow=none;html=1;rounded=0;entryX=0.075;entryY=0.713;entryDx=0;entryDy=0;entryPerimeter=0;exitX=1;exitY=0.5;exitDx=0;exitDy=0;" edge="1" parent="1" source="kzdnZfLJJSmCH7Yf09WK-36" target="kzdnZfLJJSmCH7Yf09WK-40">
          <mxGeometry width="50" height="50" relative="1" as="geometry">
            <mxPoint x="50" y="850" as="sourcePoint" />
            <mxPoint x="100" y="800" as="targetPoint" />
          </mxGeometry>
        </mxCell>
        <mxCell id="kzdnZfLJJSmCH7Yf09WK-46" value="" style="endArrow=none;html=1;rounded=0;exitX=0.5;exitY=0;exitDx=0;exitDy=0;" edge="1" parent="1" source="kzdnZfLJJSmCH7Yf09WK-39" target="kzdnZfLJJSmCH7Yf09WK-36">
          <mxGeometry width="50" height="50" relative="1" as="geometry">
            <mxPoint x="60" y="860" as="sourcePoint" />
            <mxPoint x="110" y="810" as="targetPoint" />
          </mxGeometry>
        </mxCell>
        <mxCell id="kzdnZfLJJSmCH7Yf09WK-47" value="" style="endArrow=none;html=1;rounded=0;entryX=0.617;entryY=0.038;entryDx=0;entryDy=0;entryPerimeter=0;exitX=0;exitY=0.5;exitDx=0;exitDy=0;" edge="1" parent="1" source="kzdnZfLJJSmCH7Yf09WK-36" target="kzdnZfLJJSmCH7Yf09WK-38">
          <mxGeometry width="50" height="50" relative="1" as="geometry">
            <mxPoint x="70" y="870" as="sourcePoint" />
            <mxPoint x="120" y="820" as="targetPoint" />
          </mxGeometry>
        </mxCell>
        <mxCell id="kzdnZfLJJSmCH7Yf09WK-48" value="Card" style="rounded=0;whiteSpace=wrap;html=1;fillColor=#A9C4EB;" vertex="1" parent="1">
          <mxGeometry x="660" y="880" width="120" height="60" as="geometry" />
        </mxCell>
        <mxCell id="kzdnZfLJJSmCH7Yf09WK-49" value="&lt;u&gt;&lt;b&gt;id&lt;/b&gt;&lt;/u&gt;" style="ellipse;whiteSpace=wrap;html=1;" vertex="1" parent="1">
          <mxGeometry x="750" y="720" width="120" height="80" as="geometry" />
        </mxCell>
        <mxCell id="kzdnZfLJJSmCH7Yf09WK-50" value="dateExpired" style="ellipse;whiteSpace=wrap;html=1;" vertex="1" parent="1">
          <mxGeometry x="710" y="1060" width="120" height="80" as="geometry" />
        </mxCell>
        <mxCell id="kzdnZfLJJSmCH7Yf09WK-51" value="cvvCode" style="ellipse;whiteSpace=wrap;html=1;" vertex="1" parent="1">
          <mxGeometry x="890" y="1030" width="120" height="80" as="geometry" />
        </mxCell>
        <mxCell id="kzdnZfLJJSmCH7Yf09WK-52" value="owner" style="ellipse;whiteSpace=wrap;html=1;" vertex="1" parent="1">
          <mxGeometry x="900" y="910" width="120" height="80" as="geometry" />
        </mxCell>
        <mxCell id="kzdnZfLJJSmCH7Yf09WK-53" value="cardCode" style="ellipse;whiteSpace=wrap;html=1;" vertex="1" parent="1">
          <mxGeometry x="900" y="800" width="120" height="80" as="geometry" />
        </mxCell>
        <mxCell id="kzdnZfLJJSmCH7Yf09WK-54" value="" style="endArrow=none;html=1;rounded=0;entryX=0.333;entryY=0;entryDx=0;entryDy=0;entryPerimeter=0;exitX=0.65;exitY=0.975;exitDx=0;exitDy=0;exitPerimeter=0;" edge="1" parent="1" source="kzdnZfLJJSmCH7Yf09WK-49" target="kzdnZfLJJSmCH7Yf09WK-48">
          <mxGeometry width="50" height="50" relative="1" as="geometry">
            <mxPoint x="570" y="620" as="sourcePoint" />
            <mxPoint x="650" y="560" as="targetPoint" />
          </mxGeometry>
        </mxCell>
        <mxCell id="kzdnZfLJJSmCH7Yf09WK-55" value="" style="endArrow=none;html=1;rounded=0;entryX=0.442;entryY=1.025;entryDx=0;entryDy=0;entryPerimeter=0;exitX=0.5;exitY=0;exitDx=0;exitDy=0;" edge="1" parent="1" source="kzdnZfLJJSmCH7Yf09WK-48" target="kzdnZfLJJSmCH7Yf09WK-53">
          <mxGeometry width="50" height="50" relative="1" as="geometry">
            <mxPoint x="710" y="580" as="sourcePoint" />
            <mxPoint x="760" y="530" as="targetPoint" />
          </mxGeometry>
        </mxCell>
        <mxCell id="kzdnZfLJJSmCH7Yf09WK-56" value="" style="endArrow=none;html=1;rounded=0;exitX=1;exitY=0.5;exitDx=0;exitDy=0;entryX=0;entryY=0.5;entryDx=0;entryDy=0;" edge="1" parent="1" source="kzdnZfLJJSmCH7Yf09WK-48" target="kzdnZfLJJSmCH7Yf09WK-52">
          <mxGeometry width="50" height="50" relative="1" as="geometry">
            <mxPoint x="770" y="620" as="sourcePoint" />
            <mxPoint x="820" y="570" as="targetPoint" />
          </mxGeometry>
        </mxCell>
        <mxCell id="kzdnZfLJJSmCH7Yf09WK-57" value="" style="endArrow=none;html=1;rounded=0;entryX=0.367;entryY=0.063;entryDx=0;entryDy=0;entryPerimeter=0;exitX=0.9;exitY=1.033;exitDx=0;exitDy=0;exitPerimeter=0;" edge="1" parent="1" source="kzdnZfLJJSmCH7Yf09WK-48" target="kzdnZfLJJSmCH7Yf09WK-51">
          <mxGeometry width="50" height="50" relative="1" as="geometry">
            <mxPoint x="750" y="730" as="sourcePoint" />
            <mxPoint x="800" y="680" as="targetPoint" />
          </mxGeometry>
        </mxCell>
        <mxCell id="kzdnZfLJJSmCH7Yf09WK-58" value="" style="endArrow=none;html=1;rounded=0;entryX=0.425;entryY=0.967;entryDx=0;entryDy=0;entryPerimeter=0;exitX=0.4;exitY=0.013;exitDx=0;exitDy=0;exitPerimeter=0;" edge="1" parent="1" source="kzdnZfLJJSmCH7Yf09WK-50" target="kzdnZfLJJSmCH7Yf09WK-48">
          <mxGeometry width="50" height="50" relative="1" as="geometry">
            <mxPoint x="540" y="700" as="sourcePoint" />
            <mxPoint x="590" y="650" as="targetPoint" />
          </mxGeometry>
        </mxCell>
        <mxCell id="kzdnZfLJJSmCH7Yf09WK-61" value="Has" style="rhombus;whiteSpace=wrap;html=1;fillColor=#FF8000;" vertex="1" parent="1">
          <mxGeometry x="140" y="730" width="80" height="80" as="geometry" />
        </mxCell>
        <mxCell id="kzdnZfLJJSmCH7Yf09WK-62" value="Has" style="rhombus;whiteSpace=wrap;html=1;fillColor=#FF8000;" vertex="1" parent="1">
          <mxGeometry x="350" y="900" width="80" height="80" as="geometry" />
        </mxCell>
        <mxCell id="kzdnZfLJJSmCH7Yf09WK-65" value="1" style="endArrow=none;html=1;rounded=0;exitX=1.025;exitY=0.367;exitDx=0;exitDy=0;exitPerimeter=0;" edge="1" parent="1" source="kzdnZfLJJSmCH7Yf09WK-36" target="kzdnZfLJJSmCH7Yf09WK-62">
          <mxGeometry width="50" height="50" relative="1" as="geometry">
            <mxPoint x="430" y="670" as="sourcePoint" />
            <mxPoint x="480" y="620" as="targetPoint" />
          </mxGeometry>
        </mxCell>
        <mxCell id="kzdnZfLJJSmCH7Yf09WK-66" value="1" style="endArrow=none;html=1;rounded=0;exitX=0.925;exitY=0.488;exitDx=0;exitDy=0;exitPerimeter=0;entryX=0;entryY=0.5;entryDx=0;entryDy=0;" edge="1" parent="1" source="kzdnZfLJJSmCH7Yf09WK-62" target="kzdnZfLJJSmCH7Yf09WK-48">
          <mxGeometry width="50" height="50" relative="1" as="geometry">
            <mxPoint x="570" y="630" as="sourcePoint" />
            <mxPoint x="620" y="580" as="targetPoint" />
          </mxGeometry>
        </mxCell>
        <mxCell id="kzdnZfLJJSmCH7Yf09WK-67" value="1" style="endArrow=none;html=1;rounded=0;exitX=0.825;exitY=0.675;exitDx=0;exitDy=0;exitPerimeter=0;entryX=0.008;entryY=0.4;entryDx=0;entryDy=0;entryPerimeter=0;" edge="1" parent="1" source="kzdnZfLJJSmCH7Yf09WK-61" target="kzdnZfLJJSmCH7Yf09WK-36">
          <mxGeometry width="50" height="50" relative="1" as="geometry">
            <mxPoint x="280" y="660" as="sourcePoint" />
            <mxPoint x="330" y="610" as="targetPoint" />
          </mxGeometry>
        </mxCell>
        <mxCell id="kzdnZfLJJSmCH7Yf09WK-68" value="" style="endArrow=none;html=1;rounded=0;entryX=1;entryY=0.75;entryDx=0;entryDy=0;exitX=0.163;exitY=0.275;exitDx=0;exitDy=0;exitPerimeter=0;" edge="1" parent="1" source="kzdnZfLJJSmCH7Yf09WK-61" target="kzdnZfLJJSmCH7Yf09WK-26">
          <mxGeometry width="50" height="50" relative="1" as="geometry">
            <mxPoint x="120" y="730" as="sourcePoint" />
            <mxPoint x="170" y="680" as="targetPoint" />
          </mxGeometry>
        </mxCell>
        <mxCell id="kzdnZfLJJSmCH7Yf09WK-69" value="1" style="edgeLabel;html=1;align=center;verticalAlign=middle;resizable=0;points=[];" vertex="1" connectable="0" parent="kzdnZfLJJSmCH7Yf09WK-68">
          <mxGeometry x="0.2019" relative="1" as="geometry">
            <mxPoint as="offset" />
          </mxGeometry>
        </mxCell>
        <mxCell id="kzdnZfLJJSmCH7Yf09WK-70" value="Media" style="rounded=0;whiteSpace=wrap;html=1;fillColor=#A9C4EB;" vertex="1" parent="1">
          <mxGeometry x="700" y="220" width="120" height="60" as="geometry" />
        </mxCell>
        <mxCell id="kzdnZfLJJSmCH7Yf09WK-71" value="&lt;u&gt;&lt;b&gt;id&lt;/b&gt;&lt;/u&gt;" style="ellipse;whiteSpace=wrap;html=1;" vertex="1" parent="1">
          <mxGeometry x="650" y="10" width="120" height="80" as="geometry" />
        </mxCell>
        <mxCell id="kzdnZfLJJSmCH7Yf09WK-72" value="category" style="ellipse;whiteSpace=wrap;html=1;" vertex="1" parent="1">
          <mxGeometry x="810" y="20" width="120" height="80" as="geometry" />
        </mxCell>
        <mxCell id="kzdnZfLJJSmCH7Yf09WK-73" value="price" style="ellipse;whiteSpace=wrap;html=1;" vertex="1" parent="1">
          <mxGeometry x="930" y="100" width="120" height="80" as="geometry" />
        </mxCell>
        <mxCell id="kzdnZfLJJSmCH7Yf09WK-74" value="quantity" style="ellipse;whiteSpace=wrap;html=1;" vertex="1" parent="1">
          <mxGeometry x="950" y="220" width="120" height="80" as="geometry" />
        </mxCell>
        <mxCell id="kzdnZfLJJSmCH7Yf09WK-75" value="value" style="ellipse;whiteSpace=wrap;html=1;" vertex="1" parent="1">
          <mxGeometry x="560" y="80" width="120" height="80" as="geometry" />
        </mxCell>
        <mxCell id="kzdnZfLJJSmCH7Yf09WK-76" value="imageUrl" style="ellipse;whiteSpace=wrap;html=1;" vertex="1" parent="1">
          <mxGeometry x="710" y="350" width="120" height="80" as="geometry" />
        </mxCell>
        <mxCell id="kzdnZfLJJSmCH7Yf09WK-77" value="title" style="ellipse;whiteSpace=wrap;html=1;" vertex="1" parent="1">
          <mxGeometry x="890" y="330" width="120" height="80" as="geometry" />
        </mxCell>
        <mxCell id="kzdnZfLJJSmCH7Yf09WK-78" value="N" style="endArrow=none;html=1;rounded=0;entryX=0;entryY=0.5;entryDx=0;entryDy=0;" edge="1" parent="1" source="kzdnZfLJJSmCH7Yf09WK-86" target="kzdnZfLJJSmCH7Yf09WK-70">
          <mxGeometry width="50" height="50" relative="1" as="geometry">
            <mxPoint x="670" y="190" as="sourcePoint" />
            <mxPoint x="720" y="140" as="targetPoint" />
          </mxGeometry>
        </mxCell>
        <mxCell id="kzdnZfLJJSmCH7Yf09WK-79" value="" style="endArrow=none;html=1;rounded=0;entryX=0;entryY=0.5;entryDx=0;entryDy=0;exitX=1;exitY=0.5;exitDx=0;exitDy=0;" edge="1" parent="1" source="kzdnZfLJJSmCH7Yf09WK-75" target="kzdnZfLJJSmCH7Yf09WK-70">
          <mxGeometry width="50" height="50" relative="1" as="geometry">
            <mxPoint x="680" y="200" as="sourcePoint" />
            <mxPoint x="730" y="150" as="targetPoint" />
          </mxGeometry>
        </mxCell>
        <mxCell id="kzdnZfLJJSmCH7Yf09WK-80" value="" style="endArrow=none;html=1;rounded=0;entryX=0.375;entryY=-0.017;entryDx=0;entryDy=0;entryPerimeter=0;exitX=0.925;exitY=0.85;exitDx=0;exitDy=0;exitPerimeter=0;" edge="1" parent="1" source="kzdnZfLJJSmCH7Yf09WK-71" target="kzdnZfLJJSmCH7Yf09WK-70">
          <mxGeometry width="50" height="50" relative="1" as="geometry">
            <mxPoint x="690" y="210" as="sourcePoint" />
            <mxPoint x="740" y="160" as="targetPoint" />
          </mxGeometry>
        </mxCell>
        <mxCell id="kzdnZfLJJSmCH7Yf09WK-81" value="" style="endArrow=none;html=1;rounded=0;entryX=0.217;entryY=0.9;entryDx=0;entryDy=0;entryPerimeter=0;exitX=0.6;exitY=-0.067;exitDx=0;exitDy=0;exitPerimeter=0;" edge="1" parent="1" source="kzdnZfLJJSmCH7Yf09WK-70" target="kzdnZfLJJSmCH7Yf09WK-72">
          <mxGeometry width="50" height="50" relative="1" as="geometry">
            <mxPoint x="700" y="220" as="sourcePoint" />
            <mxPoint x="750" y="170" as="targetPoint" />
          </mxGeometry>
        </mxCell>
        <mxCell id="kzdnZfLJJSmCH7Yf09WK-82" value="" style="endArrow=none;html=1;rounded=0;entryX=0.067;entryY=0.675;entryDx=0;entryDy=0;entryPerimeter=0;exitX=0.75;exitY=0;exitDx=0;exitDy=0;" edge="1" parent="1" source="kzdnZfLJJSmCH7Yf09WK-70" target="kzdnZfLJJSmCH7Yf09WK-73">
          <mxGeometry width="50" height="50" relative="1" as="geometry">
            <mxPoint x="710" y="230" as="sourcePoint" />
            <mxPoint x="760" y="180" as="targetPoint" />
          </mxGeometry>
        </mxCell>
        <mxCell id="kzdnZfLJJSmCH7Yf09WK-83" value="" style="endArrow=none;html=1;rounded=0;entryX=0.008;entryY=0.325;entryDx=0;entryDy=0;entryPerimeter=0;exitX=1;exitY=0.5;exitDx=0;exitDy=0;" edge="1" parent="1" source="kzdnZfLJJSmCH7Yf09WK-70" target="kzdnZfLJJSmCH7Yf09WK-74">
          <mxGeometry width="50" height="50" relative="1" as="geometry">
            <mxPoint x="720" y="240" as="sourcePoint" />
            <mxPoint x="770" y="190" as="targetPoint" />
          </mxGeometry>
        </mxCell>
        <mxCell id="kzdnZfLJJSmCH7Yf09WK-84" value="" style="endArrow=none;html=1;rounded=0;exitX=0.583;exitY=0;exitDx=0;exitDy=0;exitPerimeter=0;entryX=0.666;entryY=1;entryDx=0;entryDy=0;entryPerimeter=0;" edge="1" parent="1" source="kzdnZfLJJSmCH7Yf09WK-76" target="kzdnZfLJJSmCH7Yf09WK-70">
          <mxGeometry width="50" height="50" relative="1" as="geometry">
            <mxPoint x="730" y="250" as="sourcePoint" />
            <mxPoint x="780" y="200" as="targetPoint" />
          </mxGeometry>
        </mxCell>
        <mxCell id="kzdnZfLJJSmCH7Yf09WK-85" value="" style="endArrow=none;html=1;rounded=0;entryX=0.425;entryY=0.025;entryDx=0;entryDy=0;entryPerimeter=0;exitX=0.883;exitY=0.95;exitDx=0;exitDy=0;exitPerimeter=0;" edge="1" parent="1" source="kzdnZfLJJSmCH7Yf09WK-70" target="kzdnZfLJJSmCH7Yf09WK-77">
          <mxGeometry width="50" height="50" relative="1" as="geometry">
            <mxPoint x="740" y="260" as="sourcePoint" />
            <mxPoint x="790" y="210" as="targetPoint" />
          </mxGeometry>
        </mxCell>
        <mxCell id="kzdnZfLJJSmCH7Yf09WK-86" value="Has" style="rhombus;whiteSpace=wrap;html=1;fillColor=#FF8000;" vertex="1" parent="1">
          <mxGeometry x="430" y="330" width="80" height="80" as="geometry" />
        </mxCell>
        <mxCell id="kzdnZfLJJSmCH7Yf09WK-87" value="1" style="endArrow=none;html=1;rounded=0;entryX=0;entryY=1;entryDx=0;entryDy=0;exitX=1;exitY=0.25;exitDx=0;exitDy=0;" edge="1" parent="1" source="kzdnZfLJJSmCH7Yf09WK-14" target="kzdnZfLJJSmCH7Yf09WK-86">
          <mxGeometry width="50" height="50" relative="1" as="geometry">
            <mxPoint x="360" y="320" as="sourcePoint" />
            <mxPoint x="410" y="270" as="targetPoint" />
          </mxGeometry>
        </mxCell>
        <mxCell id="kzdnZfLJJSmCH7Yf09WK-88" value="quantity" style="ellipse;whiteSpace=wrap;html=1;" vertex="1" parent="1">
          <mxGeometry x="365" y="470" width="120" height="80" as="geometry" />
        </mxCell>
        <mxCell id="kzdnZfLJJSmCH7Yf09WK-89" value="price" style="ellipse;whiteSpace=wrap;html=1;" vertex="1" parent="1">
          <mxGeometry x="540" y="460" width="120" height="80" as="geometry" />
        </mxCell>
        <mxCell id="kzdnZfLJJSmCH7Yf09WK-90" value="" style="endArrow=none;html=1;rounded=0;entryX=0.5;entryY=1;entryDx=0;entryDy=0;exitX=0.677;exitY=0.003;exitDx=0;exitDy=0;exitPerimeter=0;" edge="1" parent="1" source="kzdnZfLJJSmCH7Yf09WK-88" target="kzdnZfLJJSmCH7Yf09WK-86">
          <mxGeometry width="50" height="50" relative="1" as="geometry">
            <mxPoint x="380" y="410" as="sourcePoint" />
            <mxPoint x="430" y="360" as="targetPoint" />
          </mxGeometry>
        </mxCell>
        <mxCell id="kzdnZfLJJSmCH7Yf09WK-91" value="" style="endArrow=none;html=1;rounded=0;exitX=0.635;exitY=0.019;exitDx=0;exitDy=0;exitPerimeter=0;entryX=0.5;entryY=1;entryDx=0;entryDy=0;" edge="1" parent="1" source="kzdnZfLJJSmCH7Yf09WK-89" target="kzdnZfLJJSmCH7Yf09WK-86">
          <mxGeometry width="50" height="50" relative="1" as="geometry">
            <mxPoint x="540" y="350" as="sourcePoint" />
            <mxPoint x="590" y="300" as="targetPoint" />
          </mxGeometry>
        </mxCell>
        <mxCell id="kzdnZfLJJSmCH7Yf09WK-98" value="deliveryStatus" style="ellipse;whiteSpace=wrap;html=1;" vertex="1" parent="1">
          <mxGeometry x="150" y="200" width="120" height="80" as="geometry" />
        </mxCell>
        <mxCell id="kzdnZfLJJSmCH7Yf09WK-99" value="" style="endArrow=none;html=1;rounded=0;entryX=0.5;entryY=0;entryDx=0;entryDy=0;exitX=0.885;exitY=0.983;exitDx=0;exitDy=0;exitPerimeter=0;" edge="1" parent="1" source="kzdnZfLJJSmCH7Yf09WK-1" target="kzdnZfLJJSmCH7Yf09WK-98">
          <mxGeometry width="50" height="50" relative="1" as="geometry">
            <mxPoint x="140" y="250" as="sourcePoint" />
            <mxPoint x="190" y="200" as="targetPoint" />
          </mxGeometry>
        </mxCell>
        <mxCell id="kzdnZfLJJSmCH7Yf09WK-100" value="deliverySpeed" style="ellipse;whiteSpace=wrap;html=1;" vertex="1" parent="1">
          <mxGeometry x="290" y="300" width="120" height="80" as="geometry" />
        </mxCell>
        <mxCell id="kzdnZfLJJSmCH7Yf09WK-101" value="extraFee" style="ellipse;whiteSpace=wrap;html=1;" vertex="1" parent="1">
          <mxGeometry x="450" y="220" width="120" height="80" as="geometry" />
        </mxCell>
        <mxCell id="kzdnZfLJJSmCH7Yf09WK-102" value="" style="endArrow=none;html=1;rounded=0;entryX=0;entryY=0.5;entryDx=0;entryDy=0;exitX=0.927;exitY=0.753;exitDx=0;exitDy=0;exitPerimeter=0;" edge="1" parent="1" source="kzdnZfLJJSmCH7Yf09WK-100" target="kzdnZfLJJSmCH7Yf09WK-86">
          <mxGeometry width="50" height="50" relative="1" as="geometry">
            <mxPoint x="300" y="290" as="sourcePoint" />
            <mxPoint x="350" y="240" as="targetPoint" />
          </mxGeometry>
        </mxCell>
        <mxCell id="kzdnZfLJJSmCH7Yf09WK-103" value="" style="endArrow=none;html=1;rounded=0;entryX=0.625;entryY=1;entryDx=0;entryDy=0;entryPerimeter=0;" edge="1" parent="1" source="kzdnZfLJJSmCH7Yf09WK-86" target="kzdnZfLJJSmCH7Yf09WK-101">
          <mxGeometry width="50" height="50" relative="1" as="geometry">
            <mxPoint x="380" y="230" as="sourcePoint" />
            <mxPoint x="430" y="180" as="targetPoint" />
          </mxGeometry>
        </mxCell>
      </root>
    </mxGraphModel>
  </diagram>
</mxfile>
